Coordinates
version=1
nRows=19
nColumns=33
inDegrees=yes

Units are S.I. units (second, meters, Newtons, ...)
Angles are in degrees.

endheader
time	ground_thorax_rot_x	ground_thorax_rot_y	ground_thorax_rot_z	ground_thorax_tx	ground_thorax_ty	ground_thorax_tz	clav_prot_r	clav_elev_r	scapula_abduction_r	scapula_elevation_r	scapula_upward_rot_r	scapula_winging_r	shoulder_elv_r	plane_of_elev_r	axial_rot_r	elbow_flexion_r	pro_sup_r	wrist_flex_r	wrist_dev_r	clav_prot_l	clav_elev_l	scapula_abduction_l	scapula_elevation_l	scapula_upward_rot_l	scapula_winging_l	shoulder_elv_l	plane_of_elev_l	axial_rot_l	elbow_flexion_l	pro_sup_l	wrist_flex_l	wrist_dev_l
      8.61000000	     34.72673439	     26.69939158	     26.96607464	   -156.49635832	    808.54018635	      6.49599233	     14.00724303	     45.00000000	     45.00000000	     45.00000000	     45.00000000	  -3268.24156579	  -1240.83287325	    -90.00000000	    -85.65402779	   2152.77460080	   -117.14006926	     20.14600499	     15.57894769	     12.63097349	    -45.00000000	    -41.86866296	     45.00000000	    -45.00000000	   2255.88431007	  -2086.29522718	     21.97760895	    -50.12335745	   1451.16722095	     23.31597352	      5.82839064	    -20.50581705
      8.62000000	     34.91503333	     26.46861428	     26.58705261	   -159.31438170	    810.22962812	      6.40472621	     13.97564442	     45.00000000	     45.00000000	     45.00000000	     45.00000000	  -3268.04812171	  -1240.74197863	    -90.00000000	    -85.72639599	   2152.77547284	   -117.83984348	     20.14024138	     15.72231334	     12.63931310	    -45.00000000	    -41.88053900	     45.00000000	    -45.00000000	   2256.13417929	  -2086.05753284	     22.03108829	    -49.96204847	   1451.15658681	     22.23662547	      5.95243205	    -20.54602322
      8.63000000	     35.17995723	     26.19660659	     26.06117900	   -162.10565941	    811.92273319	      6.31550795	     13.93526759	     45.00000000	     45.00000000	     45.00000000	     45.00000000	  -3267.83280719	  -1240.59279222	    -90.00000000	    -85.85596898	   2152.79165912	   -118.52388519	     20.08357734	     15.82981277	     12.61084189	    -45.00000000	    -41.86427534	     45.00000000	    -45.00000000	   2256.20034241	  -2085.93204297	     22.08558643	    -49.78969723	   1450.97936276	     21.08178178	      5.98897071	    -20.51513248
      8.64000000	     35.37314793	     25.96074412	     25.66922118	   -164.86818867	    813.61769065	      6.22919627	     13.89326455	     45.00000000	     45.00000000	     45.00000000	     45.00000000	  -3267.60034745	  -1240.47014822	    -90.00000000	    -85.95808293	   2152.86093439	   -119.16724647	     20.03664151	     15.94157713	     12.60497410	    -45.00000000	    -41.85970519	     45.00000000	    -45.00000000	   2256.41085412	  -2085.73727941	     22.11437165	    -49.81823797	   1450.90512581	     19.89453919	      6.03796852	    -20.51275160
      8.65000000	     35.56033076	     25.71150100	     25.25705895	   -167.59730184	    815.31097251	      6.14697808	     13.85541980	     45.00000000	     45.00000000	     45.00000000	     45.00000000	  -3267.41965619	  -1240.33472796	    -90.00000000	    -86.07183776	   2152.91332314	   -119.76401282	     20.02728265	     16.04627693	     12.58685368	    -45.00000000	    -41.86004037	     45.00000000	    -45.00000000	   2256.59685710	  -2085.55087656	     22.11122415	    -49.78092062	   1450.85939301	     18.66140365	      6.09072782	    -20.51867648
      8.66000000	     35.73026738	     25.46136749	     24.84682020	   -170.28969480	    816.99975665	      6.06987572	     13.81845574	     45.00000000	     45.00000000	     45.00000000	     45.00000000	  -3267.22979313	  -1240.17918350	    -90.00000000	    -86.20386915	   2152.99730202	   -120.31285769	     20.05525508	     16.15504609	     12.53655551	    -45.00000000	    -41.91827666	     45.00000000	    -45.00000000	   2256.76303376	  -2085.34627386	     22.06688731	    -49.66622812	   1450.81226569	     17.37316691	      6.15799078	    -20.52704775
      8.67000000	     35.88936902	     25.21189706	     24.45722934	   -172.94206860	    818.68081538	      5.99853174	     13.78235376	     45.00000000	     45.00000000	     45.00000000	     45.00000000	  -3267.03811772	  -1240.02757757	    -90.00000000	    -86.33007996	   2153.10383586	   -120.80065051	     20.11465252	     16.26724860	     12.49108657	    -45.00000000	    -41.99008258	     45.00000000	    -45.00000000	   2256.95145786	  -2085.15740016	     21.99924836	    -49.63791807	   1450.79613679	     16.07654665	      6.26153027	    -20.54846309
      8.68000000	     36.04182300	     24.96353219	     24.07838731	   -175.55155547	    820.35051473	      5.93289485	     13.74653173	     45.00000000	     45.00000000	     45.00000000	     45.00000000	  -3266.86241437	  -1239.87726620	    -90.00000000	    -86.45427465	   2153.20667450	   -121.21490665	     20.16999006	     16.35885509	     12.47901697	    -45.00000000	    -42.01980268	     45.00000000	    -45.00000000	   2257.16813785	  -2084.98804595	     21.95302930	    -49.80342827	   1450.78271747	     14.86342881	      6.36999124	    -20.57345773
      8.69000000	     36.18791185	     24.71512979	     23.70629610	   -178.11660488	    822.00538719	      5.87205932	     13.71283940	     45.00000000	     45.00000000	     45.00000000	     45.00000000	  -3266.68983470	  -1239.71033222	    -90.00000000	    -86.59457063	   2153.33039313	   -121.56346949	     20.23970503	     16.44257590	     12.47085616	    -45.00000000	    -42.03885100	     45.00000000	    -45.00000000	   2257.39090875	  -2084.82501619	     21.89936661	    -50.01485523	   1450.78779070	     13.73120530	      6.47182583	    -20.60249405
      8.70000000	     36.34257226	     24.45641983	     23.33832683	   -180.63866472	    823.64308701	      5.81424948	     13.68244437	     45.00000000	     45.00000000	     45.00000000	     45.00000000	  -3266.50751451	  -1239.52545866	    -90.00000000	    -86.75254239	   2153.47475407	   -121.85453299	     20.32528309	     16.52148832	     12.46071298	    -45.00000000	    -42.01733475	     45.00000000	    -45.00000000	   2257.60694254	  -2084.68602943	     21.84465248	    -50.23808965	   1450.79158316	     12.69224234	      6.56346121	    -20.63102272
      8.71000000	     36.48220106	     24.23112289	     23.11948731	   -183.11384290	    825.25750996	      5.75733271	     13.63672153	     45.00000000	     45.00000000	     45.00000000	     45.00000000	  -3266.33028893	  -1239.49974491	    -90.00000000	    -86.75764121	   2153.53117271	   -122.06289903	     20.25140640	     16.51449742	     12.73344848	    -45.00000000	    -41.79781280	     45.00000000	    -45.00000000	   2258.09186426	  -2084.54671300	     21.92875291	    -51.81807755	   1450.87353878	     12.12941358	      6.62443694	    -20.69632123
      8.72000000	     36.65653617	     23.94040395	     22.60406122	   -185.54468404	    826.84672205	      5.69923084	     13.61941107	     45.00000000	     45.00000000	     45.00000000	     45.00000000	  -3266.12872223	  -1239.13897652	    -90.00000000	    -87.09401814	   2153.78486655	   -122.27442250	     20.41763731	     16.59606738	     12.51032057	    -45.00000000	    -41.92632751	     45.00000000	    -45.00000000	   2258.08370746	  -2084.42939218	     21.77730882	    -51.16323636	   1450.80539010	     11.20791174	      6.55630302	    -20.68562133
      8.73000000	     36.80539936	     23.69040349	     22.25275810	   -187.92962443	    828.40516534	      5.63815812	     13.58644582	     45.00000000	     45.00000000	     45.00000000	     45.00000000	  -3265.98625889	  -1238.95360499	    -90.00000000	    -87.25618572	   2153.88839389	   -122.44959535	     20.47002950	     16.61004912	     12.56466004	    -45.00000000	    -41.84869406	     45.00000000	    -45.00000000	   2258.32387367	  -2084.30861094	     21.76381798	    -51.84850933	   1450.76013543	     10.56624194	      6.54874917	    -20.69194679
      8.74000000	     36.90252423	     23.44477423	     21.88788450	   -190.27030981	    829.92961247	      5.57332228	     13.56828379	     45.00000000	     45.00000000	     45.00000000	     45.00000000	  -3265.85995859	  -1238.67208817	    -90.00000000	    -87.51206243	   2154.12506940	   -122.60496498	     20.62062427	     16.67556174	     12.46120067	    -45.00000000	    -41.94088342	     45.00000000	    -45.00000000	   2258.49772198	  -2084.12652111	     21.63158106	    -51.77658611	   1450.84669551	      9.81418877	      6.55337290	    -20.71569975
      8.75000000	     37.06936192	     23.16749451	     21.53686512	   -192.56603736	    831.41486962	      5.50493099	     13.53865940	     45.00000000	     45.00000000	     45.00000000	     45.00000000	  -3265.66851023	  -1238.46674671	    -90.00000000	    -87.69358410	   2154.29500340	   -122.73023367	     20.65528291	     16.67556175	     12.51212999	    -45.00000000	    -41.84630832	     45.00000000	    -45.00000000	   2258.72670399	  -2084.04250903	     21.59057689	    -52.51667620	   1450.81442694	      9.28020982	      6.50087884	    -20.71709555
      8.76000000	     37.14175962	     22.93730272	     21.24328941	   -194.81578477	    832.85592493	      5.43440330	     13.51992128	     45.00000000	     45.00000000	     45.00000000	     45.00000000	  -3265.57033164	  -1238.15240588	    -90.00000000	    -87.98378575	   2154.53028351	   -122.84460671	     20.77887676	     16.70818738	     12.47990959	    -45.00000000	    -41.82026903	     45.00000000	    -45.00000000	   2258.95628200	  -2083.85098612	     21.51595770	    -52.74361038	   1450.88129983	      8.71664685	      6.46201274	    -20.73470929
      8.77000000	     37.29126784	     22.65908002	     20.86487202	   -197.01864344	    834.24779583	      5.36380094	     13.49965833	     45.00000000	     45.00000000	     45.00000000	     45.00000000	  -3265.38248890	  -1237.87029919	    -90.00000000	    -88.23945694	   2154.77402017	   -122.93886093	     20.89942248	     16.73904819	     12.45386196	    -45.00000000	    -41.86445902	     45.00000000	    -45.00000000	   2259.10089924	  -2083.74487556	     21.38242515	    -52.96223134	   1450.93517859	      8.16964407	      6.49864273	    -20.74330940
      8.78000000	     37.41353558	     22.41355849	     20.54454235	   -199.17275032	    835.58565273	      5.29563506	     13.48139731	     45.00000000	     45.00000000	     45.00000000	     45.00000000	  -3265.24176698	  -1237.60353125	    -90.00000000	    -88.48216257	   2154.97779028	   -123.02130702	     20.95275814	     16.71865262	     12.45597857	    -45.00000000	    -41.76846228	     45.00000000	    -45.00000000	   2259.31763715	  -2083.63406810	     21.36821480	    -53.57120117	   1450.89417936	      7.76388887	      6.38646340	    -20.73139197
      8.79000000	     37.55595549	     22.12480785	     20.28686828	   -201.28047945	    836.86787468	      5.23217925	     13.45751031	     45.00000000	     45.00000000	     45.00000000	     45.00000000	  -3265.04394330	  -1237.38295004	    -90.00000000	    -88.68058565	   2155.18117087	   -123.08032917	     20.95134199	     16.67996473	     12.54673834	    -45.00000000	    -41.62172237	     45.00000000	    -45.00000000	   2259.60645482	  -2083.53746702	     21.32799526	    -54.45246555	   1450.94931744	      7.47981506	      6.29341715	    -20.74363794
